<?xml version="1.0" encoding="utf-8"?>
<!-- Generator: Adobe Illustrator 25.4.0, SVG Export Plug-In . SVG Version: 6.00 Build 0)  -->
<svg version="1.1" id="Layout" xmlns="http://www.w3.org/2000/svg" xmlns:xlink="http://www.w3.org/1999/xlink" x="0px" y="0px"
	 viewBox="0 0 3840 2160" style="enable-background:new 0 0 3840 2160;" xml:space="preserve">
<style type="text/css">
	.st0{opacity:0.98;fill:#333333;enable-background:new    ;}
	.st1{opacity:0.8;fill:#F2F2F2;enable-background:new    ;}
	
		.st2{fill-rule:evenodd;clip-rule:evenodd;fill:#912B3C;stroke:#FFFFFF;stroke-width:2;stroke-linecap:round;stroke-linejoin:round;}
	.st3{font-family:'Montserrat-BoldItalic';}
	.st4{font-size:39.83px;}
	.st5{opacity:0.8;}
	.st6{font-family:'Montserrat-Regular';}
	.st7{font-size:25px;}
	.st8{font-family:'Montserrat-ExtraBold';}
	.st9{font-size:60.7px;}
	.st10{letter-spacing:-3;}
	.st11{letter-spacing:-1;}
	.st12{fill:#912B3D;}
	.st13{font-family:'KumbhSans-ExtraBold';}
	.st14{font-size:80.93px;}
</style>
<rect x="-30.2" y="-4.9" class="st0" width="3890.6" height="2179"/>
<path class="st1" d="M590.6,147.1h2648.9c13.5,0,24.5,11,24.5,24.5v1583c0,13.5-11,24.5-24.5,24.5H590.6c-13.5,0-24.5-11-24.5-24.5
	v-1583C566.2,158.1,577.1,147.1,590.6,147.1z"/>
<g>
	<path class="st2" d="M1916.6,1470.2l26.2,4.4c4.4,1,7.8,4.4,7.8,9.2v25.2c0,7.2-5.7,13-12.9,13.1c-0.1,0-0.1,0-0.2,0h-25.2
		c-3.5,0-6.8-1.4-9.2-3.9l-22.8-22.8c-0.7-0.6-0.7-1.6-0.2-2.3c0-0.1,0.1-0.1,0.2-0.2l5.3-4.4c2.4-1.9,5.8-2.4,8.2-1l8.2,4.4v-46.5
		c0-7.8,14.5-7.8,14.5,0L1916.6,1470.2L1916.6,1470.2z"/>
	<text transform="matrix(1 0 0 1 1549.14 1577.4202)" class="st3 st4">Sel</text>
	<text transform="matrix(1 0 0 1 1611.5601 1577.4202)" class="st3 st4">e</text>
	<text transform="matrix(1 0 0 1 1636.38 1577.4202)" class="st3 st4">zio</text>
	<text transform="matrix(1 0 0 1 1696.01 1577.4202)" class="st3 st4">n</text>
	<text transform="matrix(1 0 0 1 1723.77 1577.4202)" class="st3 st4">a u</text>
	<text transform="matrix(1 0 0 1 1789.89 1577.4202)" class="st3 st4">n</text>
	<text transform="matrix(1 0 0 1 1817.66 1577.4202)" class="st3 st4">a li</text>
	<text transform="matrix(1 0 0 1 1880.35 1577.4202)" class="st3 st4">n</text>
	<text transform="matrix(1 0 0 1 1908.12 1577.4202)" class="st3 st4">gua per visualiz</text>
	<text transform="matrix(1 0 0 1 2240.3999 1577.4202)" class="st3 st4">z</text>
	<text transform="matrix(1 0 0 1 2261.75 1577.4202)" class="st3 st4">a</text>
	<text transform="matrix(1 0 0 1 2289.24 1577.4202)" class="st3 st4">r</text>
	<text transform="matrix(1 0 0 1 2306.05 1577.4202)" class="st3 st4">e</text>
	<text transform="matrix(1 0 0 1 1616.1801 1625.2201)" class="st3 st4">gli </text>
	<text transform="matrix(1 0 0 1 1679.28 1625.2201)" class="st3 st4">e</text>
	<text transform="matrix(1 0 0 1 1703.89 1625.2201)" class="st3 st4">v</text>
	<text transform="matrix(1 0 0 1 1727.12 1625.2201)" class="st3 st4">enti </text>
	<text transform="matrix(1 0 0 1 1820.21 1625.2201)" class="st3 st4">n</text>
	<text transform="matrix(1 0 0 1 1847.97 1625.2201)" class="st3 st4">ella li</text>
	<text transform="matrix(1 0 0 1 1959.66 1625.2201)" class="st3 st4">n</text>
	<text transform="matrix(1 0 0 1 1987.4301 1625.2201)" class="st3 st4">ea del </text>
	<text transform="matrix(1 0 0 1 2127.04 1625.2201)" class="st3 st4">t</text>
	<text transform="matrix(1 0 0 1 2143.6899 1625.2201)" class="st3 st4">empo</text>
	<g class="st5">
		<text transform="matrix(1 0 0 1 1641.29 1693.6101)" class="st6 st7">Puoi sel</text>
		<text transform="matrix(1 0 0 1 1739.0601 1693.6101)" class="st6 st7">e</text>
		<text transform="matrix(1 0 0 1 1754.04 1693.6101)" class="st6 st7">ziona</text>
		<text transform="matrix(1 0 0 1 1820.89 1693.6101)" class="st6 st7">r</text>
		<text transform="matrix(1 0 0 1 1830.5901 1693.6101)" class="st6 st7">e fi</text>
		<text transform="matrix(1 0 0 1 1869.4301 1693.6101)" class="st6 st7">n</text>
		<text transform="matrix(1 0 0 1 1886.41 1693.6101)" class="st6 st7">o </text>
		<text transform="matrix(1 0 0 1 1908.63 1693.6101)" class="st6 st7">a</text>
		<text transform="matrix(1 0 0 1 1923.4301 1693.6101)" class="st6 st7">d un massi</text>
		<text transform="matrix(1 0 0 1 2059.6802 1693.6101)" class="st6 st7">m</text>
		<text transform="matrix(1 0 0 1 2086.26 1693.6101)" class="st6 st7">o di 3 li</text>
		<text transform="matrix(1 0 0 1 2172.8501 1693.6101)" class="st6 st7">n</text>
		<text transform="matrix(1 0 0 1 2189.8301 1693.6101)" class="st6 st7">gue</text>
	</g>
	<text transform="matrix(1 0 0 1 1494.74 279.81)" class="st8 st9">FI</text>
	<text transform="matrix(1 0 0 1 1555.0699 279.81)" class="st8 st9 st10">L</text>
	<text transform="matrix(1 0 0 1 1588.58 279.81)" class="st8 st9">TRA GLI </text>
	<text transform="matrix(1 0 0 1 1864.1899 279.81)" class="st8 st9">E</text>
	<text transform="matrix(1 0 0 1 1904.4299 279.81)" class="st8 st9 st11">V</text>
	<text transform="matrix(1 0 0 1 1951.23 279.81)" class="st8 st9">ENTI DEL</text>
	<text transform="matrix(1 0 0 1 2248.45 279.81)" class="st8 st9">L</text>
	<text transform="matrix(1 0 0 1 2286.51 279.81)" class="st8 st9">A</text>
	<text transform="matrix(1 0 0 1 1552.86 354.67)" class="st12 st13 st14">LINEA DEL TEM</text>
	<text transform="matrix(1 0 0 1 2155.75 354.67)" class="st12 st13 st14">P</text>
	<text transform="matrix(1 0 0 1 2209.73 354.67)" class="st12 st13 st14">O</text>
</g>
</svg>
